# xmcd
#
# Track frame offsets:
#	150
#	36151
#	70601
#
# Disc length: 1184 seconds
#
# Revision: 0
# Processed by: cddbd v1.5.2PL0 Copyright (c) Steve Scherf et al.
# Submitted via: EasyCDDAExtractor 2011.0.0.0
#
DISCID=1e049e03
DTITLE=Medway - Fat Bastard E.P.
DYEAR=2000
DGENRE=Progressive House
TTITLE0=Release
TTITLE1=Flanker
TTITLE2=Faith (Ambient Mix)
EXTD=
EXTT0=
EXTT1=
EXTT2=
PLAYORDER=
